<svg width="439" height="79" fill="none" xmlns="http://www.w3.org/2000/svg"><path d="M4.174 24v-7.14h6.74v-2.348h-6.74V9.956h7.586V7.608H1.52V24h2.654zm19.993 0v-2.16h-2.255V9.767h2.255v-2.16h-7.14v2.16h2.232V21.84h-2.231V24h7.139zm15.923 0h2.959V7.608h-2.537v12.54h-.07l-1.808-3.475-5.355-9.065H30.32V24h2.536V11.46h.07l1.81 3.475L40.09 24zm22.823 0L57.324 7.608h-3.335L48.4 24h2.7l1.433-4.439h6.13L60.143 24h2.77zm-4.908-6.716h-4.838l2.372-7.234h.118l2.348 7.233zM78.04 24h2.959V7.608h-2.536v12.54h-.071l-1.808-3.475-5.355-9.065H68.27V24h2.537V11.46h.07l1.808 3.475L78.04 24zm20.804-2.348h-9.16L98.586 9.98V7.608H87.172v2.348h8.43l-8.9 11.672V24h12.142v-2.348zM104.546 24h7.985c2.419 0 4.227-2.067 4.227-4.72 0-2.748-2.09-3.781-3.429-3.828v-.141c1.339-.118 2.842-1.01 2.842-3.476 0-2.56-1.667-4.227-4.368-4.227h-7.257V24zm2.654-7.257h4.556c1.362 0 2.207.752 2.207 2.09v.799c0 1.338-.845 2.09-2.207 2.09H107.2v-4.979zm0-6.857h4.11c1.291 0 2.066.704 2.066 1.95v.75c0 1.245-.775 1.95-2.066 1.95h-4.11v-4.65zM133.342 24v-2.348h-7.844V16.86h7.116v-2.349h-7.116V9.956h7.844V7.608h-10.497V24h10.497zm8.896-6.623h3.264L148.79 24h2.959l-3.546-6.904c2.09-.611 3.193-2.231 3.193-4.556 0-3.03-1.808-4.932-4.743-4.932h-7.069V24h2.654v-6.623zm0-2.23V9.932h4.227c1.338 0 2.137.728 2.137 2.043v1.127c0 1.315-.799 2.043-2.137 2.043h-4.227zM170.801 24l-5.589-16.392h-3.335L156.288 24h2.7l1.433-4.439h6.129L168.03 24h2.771zm-4.908-6.716h-4.838l2.372-7.234h.117l2.349 7.233zM178.05 24h2.654V9.956h4.884V7.608h-12.423v2.348h4.885V24zm12.849-16.392v9.675c0 4.791 1.644 6.999 6.13 6.999 4.485 0 6.129-2.208 6.129-6.998V7.607h-2.607v10.098c0 2.771-.962 4.204-3.522 4.204-2.56 0-3.523-1.433-3.523-4.204V7.608h-2.607zM219.681 24h2.959V7.608h-2.537v12.54h-.07l-1.808-3.475-5.355-9.065h-2.959V24h2.536V11.46h.071l1.808 3.475L219.681 24zm20.357 0h2.325v-8.736h-5.941v2.278h3.382v1.268c0 2.043-1.809 3.1-3.875 3.1-2.584 0-4.321-1.761-4.321-4.767v-2.678c0-3.006 1.737-4.767 4.321-4.767 1.996 0 3.311 1.057 3.945 2.583l2.161-1.268c-1.128-2.301-3.171-3.687-6.106-3.687-4.298 0-7.163 3.006-7.163 8.478 0 5.495 2.865 8.478 6.763 8.478 2.49 0 4.087-1.198 4.415-2.771h.094V24z" fill="#191D20"/><path d="M388.492 76.63h-55.543l28.147-52.94 27.396 52.94z" fill="#EB0606" fill-opacity=".4"/><path d="M438.23 76.579h-77.54l39.294-73.827 38.246 73.827zM248.684 24.146l3.35-16.7h6.292c1.675 0 2.967.391 3.876 1.173.925.781 1.387 1.882 1.387 3.301 0 .91-.159 1.747-.478 2.512a5.708 5.708 0 01-1.34 1.938 6.34 6.34 0 01-2.057 1.244 7.65 7.65 0 01-2.608.43h-3.732l-1.221 6.102h-3.469zm5.312-9.164h3.564c.543 0 1.005-.143 1.388-.43.399-.287.662-.726.79-1.316l.191-.885a3.03 3.03 0 00.072-.55c0-.367-.128-.67-.383-.91-.239-.255-.622-.382-1.149-.382h-3.588l-.885 4.473zm13.032 9.164l3.349-16.7h3.469l-2.727 13.637h6.125l-.622 3.063h-9.594zm20.884-16.7l-2.01 10a7.792 7.792 0 00-.119.766 6.374 6.374 0 00-.048.742c0 1.595.813 2.392 2.44 2.392.957 0 1.715-.287 2.273-.86.558-.575.965-1.484 1.22-2.728l2.082-10.312h3.421l-2.034 10.12c-.239 1.18-.55 2.201-.933 3.063-.367.861-.837 1.57-1.411 2.129a5.703 5.703 0 01-2.034 1.268c-.782.271-1.691.407-2.727.407-1.835 0-3.238-.455-4.211-1.364-.957-.91-1.436-2.257-1.436-4.043 0-.32.016-.646.048-.981.032-.351.088-.734.168-1.149l1.89-9.45h3.421zm18.176 16.987c-1.387 0-2.623-.224-3.708-.67-1.069-.447-1.906-1.212-2.512-2.297l2.656-2.081c.414.67.893 1.164 1.435 1.483.558.319 1.268.478 2.129.478 1.005 0 1.787-.223 2.345-.67.558-.446.837-1.02.837-1.722 0-.51-.183-.893-.55-1.148-.367-.256-.821-.447-1.364-.575l-1.1-.239a8.01 8.01 0 01-1.651-.526 4.625 4.625 0 01-1.268-.885 3.856 3.856 0 01-.813-1.292c-.176-.495-.264-1.077-.264-1.747 0-.765.152-1.475.455-2.13a5.248 5.248 0 011.316-1.698c.558-.478 1.236-.853 2.033-1.124.798-.287 1.675-.43 2.632-.43 1.244 0 2.361.198 3.35.597 1.004.383 1.794.957 2.368 1.723l-2.512 2.249c-.383-.527-.829-.901-1.34-1.125-.494-.239-1.164-.359-2.009-.359-.862 0-1.548.184-2.058.55-.494.367-.742.846-.742 1.436 0 .479.152.838.455 1.077.319.239.766.422 1.34.55l1.052.24a8.963 8.963 0 011.747.573c.526.24.973.543 1.34.91.367.35.654.773.861 1.268.207.494.311 1.068.311 1.722 0 .718-.159 1.428-.478 2.13a5.7 5.7 0 01-1.34 1.89c-.574.542-1.284.988-2.13 1.34-.829.334-1.77.502-2.823.502z" fill="#EB0606"/><path d="M6.232 72.207v-11.5h7.736c5.295 0 8.398-3.434 8.398-8.688 0-5.254-3.103-8.688-8.398-8.688H1.558v28.876h4.674zm0-24.78h7.447c2.358 0 3.764 1.282 3.764 3.599v1.985c0 2.317-1.406 3.6-3.764 3.6H6.232v-9.184zm44.718 24.78V68.07H37.133v-8.44h12.534v-4.136H37.133v-8.026H50.95v-4.137H32.458v28.876H50.95zm17.034 0h4.675V47.468h8.604v-4.137H59.38v4.137h8.604v24.739zm41.292 0V68.07H95.459v-8.44h12.535v-4.136H95.459v-8.026h13.817v-4.137H90.784v28.876h18.492zm15.669-11.666h5.751l5.791 11.666h5.213l-6.247-12.163c3.682-1.075 5.626-3.93 5.626-8.025 0-5.337-3.185-8.688-8.356-8.688h-12.452v28.876h4.674V60.54zm0-3.93v-9.184h7.447c2.358 0 3.764 1.282 3.764 3.599v1.985c0 2.317-1.406 3.6-3.764 3.6h-7.447zm60.63 15.596V68.07h-13.817v-8.44h12.535v-4.136h-12.535v-8.026h13.817v-4.137h-18.492v28.876h18.492zm10.995 0h14.065c4.261 0 7.446-3.64 7.446-8.315 0-4.84-3.681-6.66-6.039-6.744V56.9c2.358-.207 5.005-1.779 5.005-6.122 0-4.51-2.937-7.447-7.694-7.447H196.57v28.876zm4.675-12.783h8.025c2.399 0 3.889 1.324 3.889 3.681v1.407c0 2.358-1.49 3.682-3.889 3.682h-8.025v-8.77zm0-12.08h7.239c2.275 0 3.64 1.241 3.64 3.434V52.1c0 2.193-1.365 3.434-3.64 3.434h-7.239v-8.19zm44.768 24.863h5.212V43.33h-4.468v22.091h-.124l-3.185-6.122-9.432-15.969h-5.213v28.876h4.468V50.116h.124l3.186 6.122 9.432 15.969zm35.778 0V68.07h-13.817v-8.44h12.535v-4.136h-12.535v-8.026h13.817v-4.137h-18.492v28.876h18.492zM297.46 60.54h5.75l5.792 11.666h5.212l-6.246-12.163c3.682-1.075 5.626-3.93 5.626-8.025 0-5.337-3.185-8.688-8.356-8.688h-12.452v28.876h4.674V60.54zm0-3.93v-9.184h7.447c2.358 0 3.764 1.282 3.764 3.599v1.985c0 2.317-1.406 3.6-3.764 3.6h-7.447z" fill="#191D20"/></svg>